# xmcd
#
# Track frame offsets:
# 150
# 13380
# 25742
# 40082
# 52632
# 63560
# 77517
# 89565
# 101600
# 113852
#
# Disc length: 1694 seconds
#
#
# Revision: 1
# Processed by: cddbd v1.5.1PL0 Copyright (c) Steve Scherf et al.
# Submitted via: FreeRIP 2.942 
#
DISCID=75069c0a
DTITLE=Moe Bandy - Once More
DYEAR=1997
DGENRE=Country
TTITLE0=Bandy The Rodeo Clown
TTITLE1=Barstool Mountain
TTITLE2=Hank Williams You Wrote My Life
TTITLE3=Two Lonely People
TTITLE4=I'm Sorry For You My Friend
TTITLE5=I Cheated Me Right Out Of You
TTITLE6=It's A Cheating Situation
TTITLE7=It Was Always So Easy To Find An Unhappy Woman
TTITLE8=She's Not Really Cheatin
TTITLE9=Yesterday Once More
EXTD=Sony Music
EXTT0=
EXTT1=
EXTT2=
EXTT3=
EXTT4=
EXTT5=
EXTT6=
EXTT7=
EXTT8=
EXTT9=
PLAYORDER=
